PathFileType  4	(X/Y/Z) /home/ubuntu/opencap-monocular/results/soccer_kick_2026_08_12/soccer_kick/MarkerData/soccer_kick_5
DataRate	CameraRate	NumFrames	NumMarkers	Units	OrigDataRate	OrigDataStartFrame	OrigNumFrames
53.0	53.0	6	63	m	53.0	127	202
Frame#	Time	sternum			r_shoulder			l_shoulder			r_elbow			l_elbow			r_melbow			l_melbow			r_wrist_radius			l_wrist_radius			r_wrist_ulna			l_wrist_ulna			C7			r_ASIS			l_ASIS			r_PSIS			l_PSIS			r_knee			l_knee			r_mknee			l_mknee			r_ankle			l_ankle			r_mankle			l_mankle			r_5meta			l_5meta			r_toe			l_toe			r_pinky			l_pinky			r_index			l_index			L4			T6			r_big_toe			l_big_toe			l_calc			r_calc			Nose			Neck			RShoulder			RElbow			RWrist			LShoulder			LElbow			LWrist			MidHip			RHip			RKnee			RAnkle			LHip			LKnee			LAnkle			REye			LEye			REar			LEar			LBigToe			LSmallToe			LHeel			RBigToe			RSmallToe			RHeel			
		X1	Y1	Z1	X2	Y2	Z2	X3	Y3	Z3	X4	Y4	Z4	X5	Y5	Z5	X6	Y6	Z6	X7	Y7	Z7	X8	Y8	Z8	X9	Y9	Z9	X10	Y10	Z10	X11	Y11	Z11	X12	Y12	Z12	X13	Y13	Z13	X14	Y14	Z14	X15	Y15	Z15	X16	Y16	Z16	X17	Y17	Z17	X18	Y18	Z18	X19	Y19	Z19	X20	Y20	Z20	X21	Y21	Z21	X22	Y22	Z22	X23	Y23	Z23	X24	Y24	Z24	X25	Y25	Z25	X26	Y26	Z26	X27	Y27	Z27	X28	Y28	Z28	X29	Y29	Z29	X30	Y30	Z30	X31	Y31	Z31	X32	Y32	Z32	X33	Y33	Z33	X34	Y34	Z34	X35	Y35	Z35	X36	Y36	Z36	X37	Y37	Z37	X38	Y38	Z38	X39	Y39	Z39	X40	Y40	Z40	X41	Y41	Z41	X42	Y42	Z42	X43	Y43	Z43	X44	Y44	Z44	X45	Y45	Z45	X46	Y46	Z46	X47	Y47	Z47	X48	Y48	Z48	X49	Y49	Z49	X50	Y50	Z50	X51	Y51	Z51	X52	Y52	Z52	X53	Y53	Z53	X54	Y54	Z54	X55	Y55	Z55	X56	Y56	Z56	X57	Y57	Z57	X58	Y58	Z58	X59	Y59	Z59	X60	Y60	Z60	X61	Y61	Z61	X62	Y62	Z62	X63	Y63	Z63	

127	2.3773585	-2.4821649	1.5847804	0.7421009	-2.5485322	1.6304804	0.6060896	-2.3429228	1.6222004	0.8193663	-2.5637275	1.3232504	0.4365315	-2.1789780	1.3104504	0.8395869	-2.5266834	1.3115004	0.4609664	-2.1940908	1.2940204	0.7963489	-2.7064875	1.1334204	0.5557041	-2.4297581	1.3056404	0.9093046	-2.7018810	1.1151804	0.5170051	-2.4200575	1.2701604	0.9265500	-2.3956163	1.6381404	0.6609883	-2.5923104	1.1576404	0.6618528	-2.4364501	1.1539704	0.8353252	-2.4137125	1.1764304	0.5820771	-2.3350068	1.1707804	0.6661683	-2.6516366	0.7071304	0.6895560	-2.4665075	0.7082904	0.9133419	-2.5609669	0.7111604	0.7594425	-2.5306870	0.7080704	0.8213826	-2.5668546	0.2777204	0.6533326	-2.2333029	0.4445604	0.6539229	-2.5362211	0.2716004	0.7074160	-2.2794365	0.4359704	0.6174155	-2.6523653	0.2236004	0.6871197	-2.2272889	0.3433504	0.6783645	-2.6568460	0.2388004	0.7572796	-2.2941624	0.3221004	0.6816725	-2.7383701	1.0312404	0.5287660	-2.4981636	1.2499104	0.9500420	-2.7509994	1.0557404	0.5919815	-2.5209220	1.3054204	0.9338244	-2.3871748	1.2775304	0.6408268	-2.3665481	1.5109604	0.6289624	-2.6631111	0.2338704	0.8032267	-2.3313555	0.2962504	0.6765104	-2.2046999	0.4571804	0.5827640	-2.5035322	0.2329604	0.6371252	-2.4991288	1.8110804	0.7927246	-2.4311122	1.5543404	0.6933821	-2.5444719	1.5601804	0.5711412	-2.5548206	1.3177604	0.4664819	-2.6968619	1.1108404	0.5395815	-2.3177435	1.5485004	0.8156272	-2.1972108	1.3030104	0.8196979	-2.4322630	1.2770604	0.9106302	-2.4647275	1.0908804	0.7032392	-2.5349857	1.0949204	0.6334258	-2.6275402	0.6704504	0.7236322	-2.5430777	0.2631504	0.6812795	-2.3944602	1.0868404	0.7730568	-2.4904977	0.6794504	0.8787304	-2.2568970	0.4415304	0.6266018	-2.4907074	1.8313004	0.7351493	-2.4403240	1.8261204	0.7790119	-2.4750369	1.7690404	0.6560180	-2.3723861	1.7586704	0.7488365	-2.3321945	0.2749304	0.6952517	-2.2559928	0.2933904	0.7039068	-2.2046999	0.4571804	0.5827640	-2.6834521	0.2275804	0.8145733	-2.6986456	0.2189104	0.7331760	-2.5073583	0.2150304	0.6385630
128	2.3962264	-2.4830560	1.5847504	0.7420715	-2.5494426	1.6303904	0.6060071	-2.3439069	1.6223504	0.8193708	-2.5641360	1.3232104	0.4363190	-2.1796406	1.3108104	0.8398958	-2.5270785	1.3114804	0.4607491	-2.1947172	1.2943204	0.7966747	-2.7067298	1.1332604	0.5555139	-2.4304153	1.3054504	0.9096491	-2.7021414	1.1150404	0.5168064	-2.4206011	1.2700304	0.9269586	-2.3965787	1.6382504	0.6609698	-2.5926270	1.1575604	0.6617272	-2.4368059	1.1540204	0.8352365	-2.4140230	1.1765104	0.5820095	-2.3353300	1.1709304	0.6661279	-2.6515038	0.7069704	0.6893421	-2.4666652	0.7083504	0.9133015	-2.5608425	0.7110704	0.7592467	-2.5308362	0.7080904	0.8213241	-2.5664553	0.2776004	0.6532098	-2.2332026	0.4449004	0.6538262	-2.5358085	0.2715104	0.7072884	-2.2793224	0.4362804	0.6173363	-2.6519461	0.2234904	0.6870725	-2.2271252	0.3437004	0.6782974	-2.6563862	0.2387204	0.7572402	-2.2939848	0.3224204	0.6816229	-2.7385593	1.0310604	0.5285565	-2.4986292	1.2495904	0.9505200	-2.7511390	1.0555304	0.5917840	-2.5215653	1.3049804	0.9341865	-2.3876013	1.2776404	0.6407714	-2.3673003	1.5111204	0.6289427	-2.6626423	0.2337904	0.8031915	-2.3311682	0.2965704	0.6764873	-2.2046087	0.4575204	0.5826631	-2.5031378	0.2328404	0.6369892	-2.5001250	1.8110004	0.7929442	-2.4319495	1.5543904	0.6933557	-2.5452615	1.5600904	0.5710599	-2.5552157	1.3177104	0.4662645	-2.6971049	1.1106904	0.5393689	-2.3186376	1.5486904	0.8156516	-2.1978735	1.3033204	0.8200068	-2.4328338	1.2768604	0.9110260	-2.4649982	1.0909104	0.7031571	-2.5352347	1.0948804	0.6333208	-2.6273802	0.6703004	0.7234310	-2.5426742	0.2630504	0.6811477	-2.3947617	1.0869304	0.7729935	-2.4906421	0.6795004	0.8786851	-2.2567920	0.4418604	0.6265184	-2.4918105	1.8312904	0.7353853	-2.4413534	1.8260804	0.7791608	-2.4762366	1.7691204	0.6561537	-2.3734385	1.7587104	0.7487981	-2.3319982	0.2752404	0.6952329	-2.2558062	0.2937404	0.7038615	-2.2046087	0.4575204	0.5826631	-2.6829700	0.2275004	0.8145333	-2.6982034	0.2188304	0.7331504	-2.5069633	0.2149104	0.6384493
129	2.4150943	-2.4844407	1.5849004	0.7419886	-2.5508901	1.6304504	0.6059170	-2.3453242	1.6226904	0.8192395	-2.5652126	1.3233404	0.4360487	-2.1807498	1.3113404	0.8400737	-2.5281292	1.3116304	0.4604467	-2.1957900	1.2947804	0.7968695	-2.7076245	1.1334104	0.5555160	-2.4315287	1.3055704	0.9098361	-2.7030990	1.1151804	0.5168013	-2.4216226	1.2702104	0.9272325	-2.3980358	1.6384704	0.6608530	-2.5935379	1.1575504	0.6617879	-2.4376511	1.1542304	0.8352506	-2.4149799	1.1767104	0.5820267	-2.3362610	1.1712204	0.6661130	-2.6514936	0.7067504	0.6892255	-2.4673272	0.7086604	0.9136327	-2.5608154	0.7110004	0.7590938	-2.5315332	0.7083104	0.8216831	-2.5660995	0.2774504	0.6531330	-2.2336533	0.4457004	0.6538699	-2.5353996	0.2714004	0.7071923	-2.2798075	0.4370304	0.6174301	-2.6515606	0.2233904	0.6870978	-2.2274073	0.3444904	0.6782872	-2.6559561	0.2386404	0.7572642	-2.2942427	0.3231304	0.6816792	-2.7394516	1.0311804	0.5286479	-2.4995866	1.2496204	0.9508459	-2.7519280	1.0556704	0.5918905	-2.5226786	1.3049004	0.9343735	-2.3886573	1.2778704	0.6407644	-2.3686179	1.5113704	0.6288579	-2.6621807	0.2337104	0.8032192	-2.3314026	0.2972304	0.6765877	-2.2051675	0.4583804	0.5826784	-2.5027826	0.2326904	0.6368900	-2.5016715	1.8111604	0.7928299	-2.4332943	1.5546104	0.6932583	-2.5466063	1.5601604	0.5709624	-2.5562615	1.3178504	0.4659755	-2.6980268	1.1108404	0.5393583	-2.3199733	1.5490504	0.8155584	-2.1989735	1.3038104	0.8201889	-2.4338650	1.2769804	0.9112734	-2.4658161	1.0910604	0.7031839	-2.5360659	1.0949604	0.6333524	-2.6273078	0.6701204	0.7232993	-2.5422785	0.2629304	0.6810563	-2.3955621	1.0871604	0.7730064	-2.4913036	0.6798004	0.8790387	-2.2572728	0.4426304	0.6266031	-2.4934024	1.8314404	0.7352498	-2.4429235	1.8262804	0.7790024	-2.4778370	1.7692604	0.6560363	-2.3749778	1.7589404	0.7486210	-2.3321746	0.2759004	0.6953272	-2.2560031	0.2944804	0.7038579	-2.2051675	0.4583804	0.5826784	-2.6825127	0.2274204	0.8145700	-2.6977817	0.2187604	0.7331926	-2.5066123	0.2147604	0.6383592
130	2.4339623	-2.4862826	1.5850704	0.7420344	-2.5527762	1.6306004	0.6059864	-2.3472163	1.6230304	0.8192510	-2.5666324	1.3237004	0.4356625	-2.1822636	1.3119304	0.8403387	-2.5295140	1.3120004	0.4600327	-2.1972501	1.2953104	0.7971376	-2.7087410	1.1337004	0.5554257	-2.4331018	1.3057504	0.9098970	-2.7042915	1.1154704	0.5167086	-2.4231268	1.2704504	0.9273586	-2.3999400	1.6387704	0.6609140	-2.5948682	1.1575704	0.6618958	-2.4388545	1.1544904	0.8352522	-2.4163664	1.1769704	0.5820423	-2.3375816	1.1715704	0.6660820	-2.6516791	0.7065104	0.6891500	-2.4682828	0.7090404	0.9140257	-2.5609664	0.7109504	0.7589682	-2.5325680	0.7085904	0.8221275	-2.5658179	0.2773104	0.6531208	-2.2345250	0.4465604	0.6538937	-2.5350649	0.2712904	0.7071607	-2.2807130	0.4378304	0.6175265	-2.6512271	0.2232704	0.6871871	-2.2280839	0.3453504	0.6782476	-2.6555779	0.2385504	0.7573523	-2.2948807	0.3238904	0.6817458	-2.7405613	1.0314404	0.5286380	-2.5010516	1.2497004	0.9509351	-2.7528891	1.0559304	0.5919168	-2.5242772	1.3048904	0.9343232	-2.3901296	1.2781704	0.6407510	-2.3703849	1.5117204	0.6288615	-2.6617844	0.2336204	0.8033157	-2.3320030	0.2979504	0.6767159	-2.2061613	0.4593104	0.5826563	-2.5024884	0.2325504	0.6368507	-2.5037811	1.8113204	0.7929054	-2.4350874	1.5548904	0.6932938	-2.5483951	1.5603404	0.5709889	-2.5576366	1.3182004	0.4655880	-2.6991662	1.1111304	0.5392463	-2.3217754	1.5494404	0.8155897	-2.2004517	1.3043504	0.8204486	-2.4353698	1.2771604	0.9113772	-2.4670232	1.0912604	0.7032169	-2.5373080	1.0950704	0.6334132	-2.6273996	0.6699204	0.7232123	-2.5419705	0.2628004	0.6810345	-2.3967383	1.0874604	0.7730206	-2.4922851	0.6801804	0.8794637	-2.2581838	0.4434704	0.6266638	-2.4955385	1.8316004	0.7353350	-2.4450464	1.8265004	0.7790827	-2.4799061	1.7694404	0.6561197	-2.3770427	1.7592204	0.7486953	-2.3327170	0.2766104	0.6954494	-2.2565716	0.2952904	0.7038466	-2.2061613	0.4593104	0.5826563	-2.6821115	0.2273304	0.8146798	-2.6974301	0.2186704	0.7332904	-2.5063133	0.2146204	0.6383331
131	2.4528302	-2.4878515	1.5849904	0.7420862	-2.5539651	1.6305304	0.6058623	-2.3491325	1.6231604	0.8196925	-2.5666834	1.3240304	0.4346125	-2.1833218	1.3125404	0.8412356	-2.5295952	1.3122604	0.4590238	-2.1981132	1.2958804	0.7979709	-2.7092200	1.1349404	0.5554119	-2.4344272	1.3054604	0.9098527	-2.7048890	1.1164904	0.5167831	-2.4243792	1.2701904	0.9273705	-2.4013632	1.6388504	0.6612213	-2.5957110	1.1574304	0.6618338	-2.4398452	1.1545004	0.8353419	-2.4171457	1.1769904	0.5821754	-2.3384310	1.1716804	0.6662708	-2.6522173	0.7063504	0.6892631	-2.4691443	0.7090604	0.9140984	-2.5615530	0.7108904	0.7591140	-2.5333721	0.7086004	0.8221718	-2.5655829	0.2773104	0.6532083	-2.2351605	0.4467004	0.6540497	-2.5348655	0.2713304	0.7072537	-2.2813352	0.4379504	0.6176777	-2.6509396	0.2231604	0.6872329	-2.2287309	0.3455004	0.6784755	-2.6553259	0.2384304	0.7574036	-2.2955318	0.3240604	0.6819828	-2.7413858	1.0326204	0.5292466	-2.5023028	1.2491204	0.9506606	-2.7535475	1.0575104	0.5923821	-2.5256970	1.3042004	0.9339370	-2.3910557	1.2782404	0.6409150	-2.3715303	1.5118504	0.6291880	-2.6615324	0.2335004	0.8033670	-2.3326633	0.2981204	0.6769487	-2.2067702	0.4593904	0.5828027	-2.5021990	0.2326404	0.6369635	-2.5058001	1.8112004	0.7930232	-2.4364255	1.5549904	0.6934423	-2.5493316	1.5603504	0.5707729	-2.5576871	1.3185304	0.4645604	-2.6997679	1.1122304	0.5393298	-2.3235193	1.5496404	0.8161116	-2.2014447	1.3049304	0.8212765	-2.4365878	1.2768304	0.9113389	-2.4678309	1.0912504	0.7032927	-2.5380637	1.0949704	0.6334249	-2.6279107	0.6698004	0.7233381	-2.5417445	0.2628504	0.6811178	-2.3976070	1.0875204	0.7731562	-2.4931158	0.6802004	0.8795177	-2.2588060	0.4435904	0.6268150	-2.4974584	1.8315104	0.7354769	-2.4470574	1.8264604	0.7793256	-2.4815794	1.7693804	0.6562773	-2.3788978	1.7592804	0.7490770	-2.3333857	0.2768004	0.6957003	-2.2572397	0.2954704	0.7041198	-2.2067702	0.4593904	0.5828027	-2.6818554	0.2271804	0.8147221	-2.6971649	0.2185004	0.7333368	-2.5060015	0.2147004	0.6384454
132	2.4716981	-2.4892694	1.5846504	0.7420981	-2.5550924	1.6301404	0.6057007	-2.3509260	1.6231904	0.8200368	-2.5666982	1.3240004	0.4335795	-2.1837227	1.3133704	0.8419534	-2.5296179	1.3122004	0.4580313	-2.1983051	1.2966504	0.7986427	-2.7096223	1.1359104	0.5555884	-2.4350332	1.3045804	0.9097798	-2.7054139	1.1172204	0.5170569	-2.4247876	1.2693804	0.9273235	-2.4027666	1.6387904	0.6614386	-2.5960584	1.1571404	0.6615615	-2.4404494	1.1543204	0.8353360	-2.4173819	1.1768304	0.5822087	-2.3388024	1.1716104	0.6664285	-2.6528950	0.7062604	0.6895098	-2.4700016	0.7089004	0.9139966	-2.5622911	0.7108404	0.7594429	-2.5340886	0.7084904	0.8219811	-2.5653654	0.2774304	0.6533098	-2.2356299	0.4468104	0.6540625	-2.5346836	0.2715004	0.7073606	-2.2817702	0.4380604	0.6176403	-2.6506792	0.2231404	0.6872660	-2.2292697	0.3456304	0.6785663	-2.6551284	0.2384004	0.7574295	-2.2960864	0.3242204	0.6819890	-2.7421455	1.0335204	0.5300950	-2.5026195	1.2477204	0.9503695	-2.7541230	1.0588504	0.5930958	-2.5263737	1.3026204	0.9335662	-2.3915093	1.2781504	0.6410124	-2.3724944	1.5118704	0.6294336	-2.6613349	0.2334504	0.8033929	-2.3332142	0.2982904	0.6769235	-2.2071357	0.4594604	0.5828529	-2.5019090	0.2328604	0.6370988	-2.5075089	1.8106704	0.7936828	-2.4376264	1.5549104	0.6935332	-2.5501744	1.5600304	0.5705454	-2.5576838	1.3185304	0.4635358	-2.7002795	1.1130604	0.5395988	-2.3250785	1.5497804	0.8165211	-2.2017665	1.3057004	0.8219429	-2.4369883	1.2759204	0.9112514	-2.4682211	1.0910504	0.7032541	-2.5383405	1.0947204	0.6332848	-2.6285963	0.6697504	0.7236253	-2.5415312	0.2630004	0.6812283	-2.3981018	1.0873904	0.7732234	-2.4939386	0.6800504	0.8793657	-2.2592361	0.4436904	0.6267910	-2.4993225	1.8311804	0.7361855	-2.4488219	1.8260504	0.7799151	-2.4835264	1.7693004	0.6567376	-2.3806364	1.7590804	0.7493035	-2.3339723	0.2769704	0.6956805	-2.2578456	0.2956304	0.7042124	-2.2071357	0.4594604	0.5828529	-2.6816536	0.2271004	0.8147389	-2.6969184	0.2184204	0.7333525	-2.5056849	0.2149104	0.6385709
